<svg id="Groupe_121" data-name="Groupe 121" xmlns="http://www.w3.org/2000/svg" width="94.588" height="55.756" viewBox="0 0 94.588 55.756">
  <g id="Groupe_117" data-name="Groupe 117" transform="translate(0 0)">
    <path id="Tracé_78" data-name="Tracé 78" d="M785.016,408.57V392.334H779.86V419.3h5.156V408.587h5.707v-.017Z" transform="translate(-779.86 -391.533)" fill="#003049"/>
    <path id="Tracé_79" data-name="Tracé 79" d="M812.5,406.209c0-5.957-2.453-10.2-8.877-10.2-6.591,0-9.044,4.555-9.044,10.629,0,4.122,1.3,10.6,10.463,10.6a22.954,22.954,0,0,0,6.107-.718v-4.689a22.982,22.982,0,0,1-5.707.634c-3.971,0-5.189-1.468-5.556-3.955H812.5Zm-12.732-1.468c.167-2.653,1.318-3.971,3.771-3.971,2.536,0,3.654,1.2,3.8,3.971Z" transform="translate(-770.016 -389.072)" fill="#003049"/>
    <path id="Tracé_80" data-name="Tracé 80" d="M830.458,399.2V419.62H809.55l4.338-4.756H809.55V403.952H806.38V399.2h3.171v-7.342h5.156V399.2h5.423v4.756h-5.423v10.913h10.6V399.2Z" transform="translate(-762.127 -391.854)" fill="#003049"/>
    <path id="Tracé_81" data-name="Tracé 81" d="M817.9,391.854l-.184.2v3.771h5.156v-3.971Z" transform="translate(-754.545 -391.854)" fill="#003049"/>
    <path id="Tracé_82" data-name="Tracé 82" d="M809.016,406.142v14.227a6.549,6.549,0,0,0-5.79-2.853c-6.141,0-8.811,4.756-8.811,10.6,0,5.824,2.67,10.629,8.811,10.629a6.515,6.515,0,0,0,5.79-2.9v2.5h5.156V405.119Zm-4.722,27.826c-3.287,0-4.722-1.785-4.722-5.857,0-4.055,1.435-5.84,4.722-5.84s4.722,1.785,4.722,5.84C809.016,432.183,807.581,433.968,804.293,433.968Z" transform="translate(-770.128 -382.984)" fill="#003049"/>
    <path id="Tracé_83" data-name="Tracé 83" d="M808.469,408.388l-.184.2v3.771h5.156v-3.971Zm-.184,7.342v20.424h5.156V415.73Z" transform="translate(-760.854 -380.798)" fill="#003049"/>
    <path id="Tracé_84" data-name="Tracé 84" d="M822.6,429c-3.487,0-4.322-1.9-4.322-5.857,0-3.971.834-5.84,4.322-5.84,2.9,0,3.538,1.7,3.688,3.971h5.156c0-4.722-3.054-8.727-8.927-8.727-6.341,0-9.394,4.372-9.394,10.6s3.054,10.629,9.394,10.629c5.874,0,8.927-4.021,8.927-8.727h-5.156C826.14,427.3,825.506,429,822.6,429Z" transform="translate(-757.617 -378.017)" fill="#003049"/>
    <path id="Tracé_85" data-name="Tracé 85" d="M843.726,422.743c0-5.957-2.47-10.2-8.894-10.2-6.574,0-9.027,4.555-9.027,10.629,0,4.122,1.3,10.6,10.463,10.6a23.018,23.018,0,0,0,6.107-.718v-4.689a22.985,22.985,0,0,1-5.707.634c-3.971,0-5.206-1.468-5.557-3.955h12.615Zm-12.732-1.468c.15-2.653,1.3-3.971,3.771-3.971,2.536,0,3.638,1.2,3.8,3.971Z" transform="translate(-749.139 -378.017)" fill="#003049"/>
  </g>
  <path id="Tracé_86" data-name="Tracé 86" d="M786.932,399.214v.017h-1.4l.017-.017Z" transform="translate(-776.069 -386.933)" fill="#003049"/>
  <path id="Tracé_87" data-name="Tracé 87" d="M799.97,392.334V419.3h-5.156V408.586h-6.157v-.017H782.95v-.017l4.305-4.722h7.559v-11.5Z" transform="translate(-777.794 -391.533)" fill="#003049"/>
  <rect id="Rectangle_36" data-name="Rectangle 36" width="5.707" height="0.017" transform="translate(5.156 17.037)" fill="#003049"/>
</svg>
