<svg xmlns="http://www.w3.org/2000/svg" width="222.05" height="232.24" viewBox="0 0 222.05 232.24">
  <g id="Groupe_221" data-name="Groupe 221" transform="translate(-1625.479 1787.121)">
    <text id="_7" data-name="7" transform="translate(1740.02 -1657)" fill="#003049" font-size="42" font-family="Helvetica-Bold, Helvetica" font-weight="700"><tspan x="-11.679" y="0">7</tspan></text>
    <g id="Groupe_149" data-name="Groupe 149" transform="translate(512.599 -2475.041)">
      <g id="Groupe_68" data-name="Groupe 68">
        <path id="Tracé_25" data-name="Tracé 25" d="M1334.43,769.51a7.054,7.054,0,0,0-1.36-4.11l-40.04-54.27a7.015,7.015,0,0,0-3.52-2.51l-64.29-20.37a6.968,6.968,0,0,0-4.33.03l-63.98,21.31a7.04,7.04,0,0,0-3.48,2.57l-39.24,54.85a7.018,7.018,0,0,0-1.31,4.13l.5,67.43a6.994,6.994,0,0,0,1.37,4.11l40.04,54.26a6.933,6.933,0,0,0,3.52,2.52l64.29,20.37a6.891,6.891,0,0,0,2.11.33,6.961,6.961,0,0,0,2.21-.36l63.98-21.31a7.022,7.022,0,0,0,3.49-2.57l39.23-54.85a7.041,7.041,0,0,0,1.31-4.13Zm-44.84-51.24,37.84,51.29.47,63.69-35.23-12.95a6.716,6.716,0,0,0-.27-1.07l-23.77-69.43c-.09-.25-.19-.5-.3-.73Zm-66.49-23.35,60.8,19.26-21.33,30.9c-.19-.01-.38-.02-.57-.02h-.11l-73.37,1.16a5.867,5.867,0,0,0-.94.08l-24.92-31.25Zm-103.22,76.16L1157,719.2l25.12,31.47a4.113,4.113,0,0,0-.18.49l-21.58,70.14c-.06.2-.11.39-.15.59l-39.86,12.96Zm101.38,140.99-60.84-19.28-37.85-51.3,39.8-12.93a5.486,5.486,0,0,0,.65.52l60.04,42.2c.08.05.15.1.23.15Zm-53.63-88.3-.58-.41.22-.7,21.36-69.44,73.37-1.16,23.64,69.04.13.39-.36.27-58.32,43.79Zm121.06,68.07-60.41,20.13,2-40.18a7.158,7.158,0,0,0,1.01-.64l58.69-44.06.28-.22,35.55,13.08Z" fill="#003049"/>
      </g>
      <g id="Groupe_69" data-name="Groupe 69">
        <path id="Tracé_26" data-name="Tracé 26" d="M1167.63,823.77l-.58-.41.22-.7a3.364,3.364,0,0,1,.23.55A3.771,3.771,0,0,1,1167.63,823.77Z" fill="#003049"/>
      </g>
      <g id="Groupe_70" data-name="Groupe 70">
        <path id="Tracé_27" data-name="Tracé 27" d="M1285.77,821.49l-.36.27a2.415,2.415,0,0,1,.1-.36c.04-.1.08-.2.13-.3Z" fill="#003049"/>
      </g>
    </g>
  </g>
</svg>
