<svg xmlns="http://www.w3.org/2000/svg" width="205.672" height="236.421" viewBox="0 0 205.672 236.421">
  <g id="Groupe_236" data-name="Groupe 236" transform="translate(-2178.358 1504.121)">
    <text id="_9" data-name="9" transform="translate(2279.952 -1379.832)" fill="#003049" font-size="35" font-family="Helvetica-Bold, Helvetica" font-weight="700"><tspan x="-9.733" y="0">9</tspan></text>
    <g id="Groupe_166" data-name="Groupe 166" transform="translate(2178.358 -1504.121)">
      <g id="Groupe_77" data-name="Groupe 77" transform="translate(0.001 0)">
        <path id="Tracé_32" data-name="Tracé 32" d="M695.289,927.8a3.452,3.452,0,0,1-1.723-.462l-99.389-57.382a3.448,3.448,0,0,1-1.723-2.985V752.205a3.446,3.446,0,0,1,1.723-2.984l99.389-57.383a3.448,3.448,0,0,1,3.446,0L796.4,749.221a3.445,3.445,0,0,1,1.723,2.984V866.969a3.447,3.447,0,0,1-1.723,2.985l-99.389,57.382A3.448,3.448,0,0,1,695.289,927.8Zm-95.943-62.817,95.943,55.393,95.943-55.393V754.195L695.289,698.8l-95.943,55.394Z" transform="translate(-592.454 -691.377)" fill="#003049"/>
      </g>
      <g id="Groupe_78" data-name="Groupe 78" transform="translate(34.76 68.338)">
        <path id="Tracé_33" data-name="Tracé 33" d="M695.836,879.624a3.446,3.446,0,0,1-2.984-1.723l-64.63-111.943a3.446,3.446,0,0,1,2.984-5.169h129.26a3.446,3.446,0,0,1,2.984,5.169L698.82,877.9A3.445,3.445,0,0,1,695.836,879.624ZM637.174,767.682l58.661,101.605L754.5,767.682Z" transform="translate(-627.76 -760.79)" fill="#003049"/>
      </g>
      <g id="Groupe_79" data-name="Groupe 79" transform="translate(34.76 0)">
        <path id="Tracé_34" data-name="Tracé 34" d="M631.2,766.607a3.446,3.446,0,0,1-2.5-5.814l64.63-68.338a3.446,3.446,0,0,1,5.007,4.735l-64.63,68.338A3.439,3.439,0,0,1,631.2,766.607Z" transform="translate(-627.76 -691.378)" fill="#003049"/>
      </g>
      <g id="Groupe_80" data-name="Groupe 80" transform="translate(164.019 68.337)">
        <path id="Tracé_35" data-name="Tracé 35" d="M797.257,871.491a3.445,3.445,0,0,1-3.267-2.352L759.231,765.33a3.446,3.446,0,1,1,6.535-2.188L800.525,866.95a3.445,3.445,0,0,1-3.268,4.541Z" transform="translate(-759.052 -760.789)" fill="#003049"/>
      </g>
      <g id="Groupe_81" data-name="Groupe 81" transform="translate(1.597 169.264)">
        <path id="Tracé_36" data-name="Tracé 36" d="M695.319,881.211a3.458,3.458,0,0,1-.39-.022l-97.792-11.016a3.445,3.445,0,1,1,.771-6.847L695.7,874.342a3.445,3.445,0,0,1-.381,6.869Z" transform="translate(-594.076 -863.303)" fill="#003049"/>
      </g>
      <g id="Groupe_82" data-name="Groupe 82" transform="translate(0 57.382)">
        <path id="Tracé_37" data-name="Tracé 37" d="M630.66,767.51a3.449,3.449,0,0,1-1.037-.161l-34.759-10.956a3.446,3.446,0,0,1,2.071-6.573l34.76,10.956a3.446,3.446,0,0,1-1.035,6.733Z" transform="translate(-592.453 -749.661)" fill="#003049"/>
      </g>
      <g id="Groupe_83" data-name="Groupe 83" transform="translate(99.39 0)">
        <path id="Tracé_38" data-name="Tracé 38" d="M761.482,766.607a3.435,3.435,0,0,1-2.5-1.078L694.348,697.19a3.446,3.446,0,1,1,5.007-4.735l64.631,68.338a3.446,3.446,0,0,1-2.5,5.814Z" transform="translate(-693.406 -691.378)" fill="#003049"/>
      </g>
      <g id="Groupe_84" data-name="Groupe 84" transform="translate(164.019 57.382)">
        <path id="Tracé_39" data-name="Tracé 39" d="M762.5,767.51a3.447,3.447,0,0,1-1.036-6.733l34.759-10.956a3.446,3.446,0,0,1,2.072,6.573L763.535,767.35A3.455,3.455,0,0,1,762.5,767.51Z" transform="translate(-759.052 -749.661)" fill="#003049"/>
      </g>
      <g id="Groupe_85" data-name="Groupe 85" transform="translate(99.39 180.28)">
        <path id="Tracé_40" data-name="Tracé 40" d="M696.852,930.633a3.447,3.447,0,0,1-3.446-3.446V877.939a3.446,3.446,0,1,1,6.892,0v49.249A3.447,3.447,0,0,1,696.852,930.633Z" transform="translate(-693.406 -874.493)" fill="#003049"/>
      </g>
      <g id="Groupe_86" data-name="Groupe 86" transform="translate(99.39 172.147)">
        <path id="Tracé_41" data-name="Tracé 41" d="M696.848,881.257a3.446,3.446,0,0,1-.277-6.88l99.389-8.134a3.446,3.446,0,0,1,.562,6.869l-99.389,8.133C697.038,881.253,696.942,881.257,696.848,881.257Z" transform="translate(-693.406 -866.232)" fill="#003049"/>
      </g>
      <g id="Groupe_87" data-name="Groupe 87" transform="translate(1.597 68.337)">
        <path id="Tracé_42" data-name="Tracé 42" d="M597.523,868.61a3.448,3.448,0,0,1-3.274-4.523L627.411,763.16a3.446,3.446,0,0,1,6.547,2.152L600.8,866.239A3.447,3.447,0,0,1,597.523,868.61Z" transform="translate(-594.075 -760.789)" fill="#003049"/>
      </g>
    </g>
  </g>
</svg>
