<svg xmlns="http://www.w3.org/2000/svg" width="207.174" height="227.249" viewBox="0 0 207.174 227.249">
  <g id="Groupe_208" data-name="Groupe 208" transform="translate(-549.265 2070.474)">
    <text id="_3" data-name="3" transform="translate(652.615 -1940)" fill="#003049" font-size="42" font-family="Helvetica-Bold, Helvetica" font-weight="700"><tspan x="-11.679" y="0">3</tspan></text>
    <g id="Groupe_137" data-name="Groupe 137" transform="translate(-313.805 -2758.041)">
      <g id="Groupe_72" data-name="Groupe 72">
        <path id="Tracé_28" data-name="Tracé 28" d="M966.662,862.533a3.5,3.5,0,0,1-1.858-6.468l63.772-39.873-65-120.956a3.5,3.5,0,1,1,6.166-3.314l66.552,123.844a3.5,3.5,0,0,1-1.228,4.625L968.515,862A3.494,3.494,0,0,1,966.662,862.533Z" fill="#003049"/>
      </g>
      <g id="Groupe_73" data-name="Groupe 73">
        <path id="Tracé_29" data-name="Tracé 29" d="M966.658,914.816a3.5,3.5,0,0,1-3.5-3.5V859.033a3.5,3.5,0,0,1,7,0v44.872l89.531-73.644-25.787-8.9a3.5,3.5,0,1,1,2.284-6.617l25.978,8.962-7.008-36.481-91.009-93.723a3.5,3.5,0,0,1,5.022-4.877l91.738,94.474a3.5,3.5,0,0,1,.927,1.778l8.346,43.451a3.508,3.508,0,0,1,.061.565h0v.007h0v.032a3.513,3.513,0,0,1-.252,1.359h0l0,.007h0l0,.006h0l0,0,0,.007,0,.006,0,.007,0,.007,0,.006v0l0,.005v0l0,.007,0,.007,0,.006,0,0v0l0,.005h0l0,0h0l0,.006h0l0,0h0l0,.007h0a3.548,3.548,0,0,1-.3.545l0,.006h0l0,.005h0l0,0,0,.005v0l0,.006-.005.006,0,.007h0l0,.005h0l0,.006h0a3.609,3.609,0,0,1-.555.613h0l0,0h0l-.007.005-.006,0,0,0h0l-.056.047L968.883,914.02A3.5,3.5,0,0,1,966.658,914.816Z" fill="#003049"/>
      </g>
      <g id="Groupe_74" data-name="Groupe 74">
        <path id="Tracé_30" data-name="Tracé 30" d="M966.651,862.533A3.49,3.49,0,0,1,964.8,862l-66.552-41.61a3.5,3.5,0,0,1-1.227-4.625l66.551-123.844a3.5,3.5,0,1,1,6.166,3.314l-65,120.956,63.773,39.873a3.5,3.5,0,0,1-1.859,6.468Z" fill="#003049"/>
      </g>
      <g id="Groupe_75" data-name="Groupe 75">
        <path id="Tracé_31" data-name="Tracé 31" d="M966.655,914.816a3.5,3.5,0,0,1-2.224-.8L864.346,831.694a3.516,3.516,0,0,1-.722-.812h0l0-.005h0l0-.006,0-.005,0-.006,0,0,0-.006,0-.006,0-.006,0-.006,0-.006,0-.006,0,0h0l0-.006,0-.006h0l0-.006h0a3.529,3.529,0,0,1-.251-.508h0l0-.006h0l0-.006h0l0-.006h0l0-.006h0l0-.006h0l0-.006h0l0-.007v-.005l0,0,0-.007,0-.007,0-.006,0-.007,0-.006,0-.005,0-.006h0l0-.006h0l0-.013h0a3.5,3.5,0,0,1-.19-1.465h0v-.007h0v-.006h0v-.007h0v-.006h0v-.007h0v-.007h0v-.007h0v-.006h0v-.007h0l0-.014h0c.009-.082.02-.164.035-.247l.009-.046,8.345-43.445a3.5,3.5,0,0,1,.926-1.778l91.739-94.474a3.5,3.5,0,0,1,5.021,4.877l-91.009,93.723-7.008,36.481,25.978-8.962a3.5,3.5,0,1,1,2.283,6.617l-25.786,8.9,89.531,73.644V859.033a3.5,3.5,0,0,1,7,0v52.283a3.5,3.5,0,0,1-3.5,3.5Z" fill="#003049"/>
      </g>
    </g>
  </g>
</svg>
